<svg width="130" height="120" viewBox="0 0 130 120" fill="none" xmlns="http://www.w3.org/2000/svg">
<path d="M48.5666 95.8439C74.0162 95.8439 94.6472 74.9521 94.6472 49.1807C94.6472 23.4094 74.0162 2.51758 48.5666 2.51758C23.1171 2.51758 2.48613 23.4094 2.48613 49.1807C2.48613 74.9521 23.1171 95.8439 48.5666 95.8439Z" fill="#FBE2A8" stroke="#FBE2A8" stroke-width="4" stroke-miterlimit="10"/>
<path d="M27.7577 61.2651C29.2475 61.2651 30.4552 60.0421 30.4552 58.5335C30.4552 57.0249 29.2475 55.802 27.7577 55.802C26.2679 55.802 25.0602 57.0249 25.0602 58.5335C25.0602 60.0421 26.2679 61.2651 27.7577 61.2651Z" fill="#6D6A66"/>
<path d="M56.1618 58.6342C57.6515 58.6342 58.8592 57.4112 58.8592 55.9026C58.8592 54.394 57.6515 53.1711 56.1618 53.1711C54.672 53.1711 53.4643 54.394 53.4643 55.9026C53.4643 57.4112 54.672 58.6342 56.1618 58.6342Z" fill="#6D6A66"/>
<path d="M48.1937 64.0344C44.6758 66.6779 40.4618 67.2695 36.3721 65.6582C34.8805 65.0666 34.2341 67.5087 35.7133 68.0877C40.3251 69.9003 45.4838 69.1954 49.4492 66.2121C50.7171 65.2554 49.4741 63.0651 48.1937 64.0344Z" fill="#545256"/>
<path d="M49.1758 116.727L32.9786 119.32C31.3004 119.585 29.7217 118.427 29.4607 116.727L24.4263 84.5022C24.1652 82.8029 25.3089 81.2042 26.987 80.9399L43.1842 78.3468C44.8623 78.0824 46.441 79.2405 46.702 80.9399L51.7365 113.165C52.0099 114.864 50.8663 116.463 49.1758 116.727Z" fill="#545256" stroke="#545256" stroke-miterlimit="10"/>
<path d="M27.3226 62.0455C31.3253 62.0455 31.3253 55.7516 27.3226 55.7516C23.3199 55.7516 23.3075 62.0455 27.3226 62.0455Z" fill="#545256"/>
<path d="M55.7889 59.2762C59.7915 59.2762 59.7915 52.9823 55.7889 52.9823C51.7862 52.9823 51.7738 59.2762 55.7889 59.2762Z" fill="#545256"/>
<path d="M11.1876 78.5356C4.53719 82.4378 2.17536 91.7529 7.08548 98.0594C13.4127 106.191 26.266 107.337 35.3901 104.769C39.2436 103.686 37.6028 97.6062 33.7368 98.7013C27.6085 100.426 20.896 100.099 15.3022 96.8006C10.3299 93.8802 8.63932 87.2967 14.3326 83.9736C17.7883 81.9469 14.6682 76.509 11.1876 78.5356Z" fill="#FBE2A8"/>
<path d="M69.5123 81.0532C72.7194 83.3568 77.2442 86.9569 75.0067 91.0228C73.2415 94.2453 68.0082 96.5992 64.8135 97.7447C59.0084 99.8217 48.9769 101.76 44.6013 95.8691C42.227 92.6718 36.8321 95.8062 39.2312 99.0412C46.6896 109.099 61.9296 106.783 71.6877 101.559C75.8893 99.3056 81.8187 95.0383 82.4278 89.8018C83.1115 83.8477 76.8713 78.6615 72.6449 75.6152C69.388 73.2739 66.2804 78.7244 69.5123 81.0532Z" fill="#FBE2A8"/>
</svg>
