<svg width="60" height="54" viewBox="0 0 60 54" fill="none" xmlns="http://www.w3.org/2000/svg">
<path d="M44.2255 44.2329H5.08129C2.55786 44.2329 0.519226 42.1559 0.519226 39.6131V10.6988C0.519226 8.14351 2.57029 6.0791 5.08129 6.0791H44.2379C46.7613 6.0791 48.8 8.1561 48.8 10.6988V39.6131C48.8 42.1559 46.7489 44.2329 44.2255 44.2329Z" fill="#5AC1CC" stroke="#5AC1CC" stroke-miterlimit="10"/>
<path d="M12.838 42.0426C12.751 44.1322 12.6391 47.9715 12.7883 50.0485C14.5286 48.626 16.1446 45.1266 17.2633 43.1629L12.838 42.0426Z" fill="#5AC1CC"/>
<path d="M9.73034 42.0426C9.63089 44.6986 9.51901 47.3924 9.68061 50.0485C9.85464 52.843 12.9126 54.1018 14.9885 52.2765C17.2385 50.2876 18.5064 47.3421 19.9484 44.7616C20.9179 43.0244 20.0727 40.6453 18.0962 40.1418C16.6169 39.7642 15.1501 39.3866 13.6709 39.0089C9.79249 38.0145 8.13921 44.0944 12.0176 45.0763C13.4968 45.4539 14.9637 45.8315 16.4429 46.2092C15.8214 44.6734 15.1998 43.1251 14.5907 41.5894C13.4098 43.7042 12.4402 46.2092 10.6005 47.833C12.3656 48.5757 14.1432 49.3184 15.9084 50.0611C15.7344 47.405 15.8462 44.7112 15.9581 42.0552C16.0948 37.9893 9.8795 38.0019 9.73034 42.0426Z" fill="#5AC1CC"/>
<path d="M58.1105 6.75883C58.4462 2.42861 55.1023 0.276087 51.2488 2.37826C46.6743 4.87065 42.9948 9.04982 39.6634 13.0024C38.7808 14.0472 30.8874 24.1175 29.9426 23.2993C25.4179 19.397 23.3171 15.671 17.3876 13.9843C12.4651 12.587 9.33256 18.5285 12.4154 22.8209C13.8698 24.8476 16.4802 26.635 18.3697 28.2966C30.0296 38.5432 30.0296 38.5432 37.227 32.3248C42.162 28.0575 47.1342 23.765 51.4353 18.818C54.1576 15.6836 57.402 11.6429 58.0484 7.38822C58.0732 7.17423 58.0981 6.96024 58.1105 6.75883Z" fill="white" stroke="#5AC1CC" stroke-width="3" stroke-miterlimit="10"/>
</svg>
