<svg width="16" height="18" viewBox="0 0 16 18" fill="none" xmlns="http://www.w3.org/2000/svg">
<g clip-path="url(#clip0_137_978)">
<path d="M5.42857 12.375C4.95357 12.375 4.57143 11.9988 4.57143 11.5312C4.57143 11.0637 4.95357 10.6875 5.42857 10.6875H10.5714C11.0464 10.6875 11.4286 11.0637 11.4286 11.5312C11.4286 11.9988 11.0464 12.375 10.5714 12.375H5.42857ZM4.57143 0C5.04643 0 5.42857 0.37793 5.42857 0.84375V2.25H10.5714V0.84375C10.5714 0.37793 10.9536 0 11.4286 0C11.9036 0 12.2857 0.37793 12.2857 0.84375V2.25H13.7143C14.975 2.25 16 3.25723 16 4.5V15.75C16 16.991 14.975 18 13.7143 18H2.28571C1.02321 18 0 16.991 0 15.75V4.5C0 3.25723 1.02321 2.25 2.28571 2.25H3.71429V0.84375C3.71429 0.37793 4.09643 0 4.57143 0ZM14.2857 6.75H1.71429V15.75C1.71429 16.0594 1.97 16.3125 2.28571 16.3125H13.7143C14.0286 16.3125 14.2857 16.0594 14.2857 15.75V6.75Z" fill="#222222"/>
</g>
<defs>
<clipPath id="clip0_137_978">
<rect width="16" height="18" fill="white"/>
</clipPath>
</defs>
</svg>
