<svg width="14" height="14" viewBox="0 0 14 14" fill="none" xmlns="http://www.w3.org/2000/svg">
<g clip-path="url(#clip0_145_1318)">
<path d="M5.78185 10.4872L7.00367 9.2654L8.22549 10.4872C8.33458 10.5963 8.48004 10.6545 8.63276 10.6545C8.78549 10.6545 8.93095 10.5963 9.04004 10.4872C9.14913 10.3781 9.20731 10.2327 9.20731 10.0799C9.20731 9.92722 9.14913 9.78176 9.04004 9.67267L7.81822 8.45085L9.04004 7.22904C9.26549 7.00358 9.26549 6.63995 9.04004 6.41449C8.82185 6.19631 8.44367 6.19631 8.22549 6.41449L7.00367 7.63631L5.78185 6.42176C5.5564 6.19631 5.19276 6.19631 4.96731 6.42176C4.74185 6.64722 4.74185 7.01085 4.96731 7.23631L6.18913 8.45813L4.96731 9.67267C4.85822 9.78176 4.80004 9.92722 4.80004 10.0799C4.80004 10.2327 4.85822 10.3781 4.96731 10.4872C5.19276 10.7127 5.5564 10.7127 5.78185 10.4872Z" fill="#FF3030"/>
<path d="M13.5491 2.90909H10.3636V2.64C10.3636 1.18545 9.17818 0 7.72364 0H6.26909C4.82182 0 3.63636 1.18545 3.63636 2.64V2.90909H0.458182C0.203636 2.90909 0 3.11273 0 3.36727C0 3.62182 0.203636 3.82545 0.458182 3.82545H1.45455V13.0545C1.45455 13.5782 1.88364 14.0073 2.40727 14.0073H11.6C12.1236 14.0073 12.5527 13.5782 12.5527 13.0545V3.81818H13.5564C13.8036 3.81818 14.0145 3.61455 14.0145 3.36C14.0145 3.10545 13.7964 2.90909 13.5491 2.90909ZM4.54545 2.64C4.54545 1.68727 5.32364 0.909091 6.27636 0.909091H7.73091C8.68364 0.909091 9.46182 1.68727 9.46182 2.64V2.90909H4.54545V2.64ZM11.6364 12.32C11.6364 12.7418 11.2945 13.0909 10.8655 13.0909H3.13455C2.71273 13.0909 2.36364 12.7491 2.36364 12.32V3.81818H11.6364V12.32Z" fill="#FF3030"/>
</g>
<defs>
<clipPath id="clip0_145_1318">
<rect width="14" height="14" fill="white"/>
</clipPath>
</defs>
</svg>
