<svg width="40" height="40" viewBox="0 0 40 40" fill="none" xmlns="http://www.w3.org/2000/svg">
<path d="M20 40.0001C31.0457 40.0001 40 31.0458 40 20.0001C40 8.95443 31.0457 0.00012207 20 0.00012207C8.9543 0.00012207 0 8.95443 0 20.0001C0 31.0458 8.9543 40.0001 20 40.0001Z" fill="#FBE2A8"/>
<path d="M22.9506 23.3253C21.0505 24.4305 18.9741 24.4495 17.1284 23.3605C16.4556 22.9613 15.9547 24.1558 16.6226 24.5478C18.7041 25.7736 21.2445 25.7601 23.3866 24.5125C24.0718 24.1122 23.6427 22.9195 22.9506 23.3253Z" fill="#545256"/>
<path d="M12.5072 20.1552C14.5138 20.1552 14.5138 17.0001 12.5072 17.0001C10.5007 17.0001 10.4945 20.1552 12.5072 20.1552Z" fill="#545256"/>
<path d="M26.5012 20.0001C28.4996 20.0001 28.4996 17.0001 26.5012 17.0001C24.5027 17.0001 24.4965 20.0001 26.5012 20.0001Z" fill="#545256"/>
</svg>
