<svg width="16" height="18" viewBox="0 0 16 18" fill="none" xmlns="http://www.w3.org/2000/svg">
<g clip-path="url(#clip0_144_131)">
<path d="M7.99998 9C10.58 9 12.6666 6.98786 12.6666 4.5C12.6666 2.01214 10.58 0 7.99998 0C5.41998 0 3.33331 2.01214 3.33331 4.5C3.33331 6.98786 5.41998 9 7.99998 9ZM7.99998 1.28571C9.83998 1.28571 11.3333 2.72571 11.3333 4.5C11.3333 6.27429 9.83998 7.71429 7.99998 7.71429C6.15998 7.71429 4.66665 6.27429 4.66665 4.5C4.66665 2.72571 6.15998 1.28571 7.99998 1.28571Z" fill="#222222"/>
<path d="M8.66667 10.2856H7.33333C3.28 10.2856 0 13.4485 0 17.3571C0 17.7106 0.3 17.9999 0.666667 17.9999H15.3333C15.7 17.9999 16 17.7106 16 17.3571C16 13.4485 12.72 10.2856 8.66667 10.2856ZM1.37333 16.7142C1.71333 13.7892 4.28 11.5714 7.33333 11.5714H8.66667C11.72 11.5714 14.2867 13.7892 14.6267 16.7142H1.37333Z" fill="#222222"/>
</g>
<defs>
<clipPath id="clip0_144_131">
<rect width="16" height="18" fill="white"/>
</clipPath>
</defs>
</svg>
