<svg width="14" height="14" viewBox="0 0 14 14" fill="none" xmlns="http://www.w3.org/2000/svg">
<g clip-path="url(#clip0_145_1325)">
<path d="M1.91277 11.0924H4.99641C5.1055 11.0779 5.23641 11.0488 5.32368 10.9616L12.4219 3.90343C12.5964 3.72897 12.6037 3.43821 12.4219 3.26376L9.33095 0.13811C9.24368 0.0436137 9.12732 0 9.00368 0C8.88732 0 8.77095 0.0436137 8.68368 0.130841L1.5855 7.23261C1.49823 7.31257 1.45459 7.42887 1.45459 7.55244V10.6345C1.45459 10.8889 1.65823 11.0924 1.91277 11.0924ZM9.00368 1.09761L11.4473 3.53998L10.0291 4.95743L7.5855 2.51506L9.00368 1.09761ZM2.36368 7.74143L6.95277 3.16199L9.39641 5.60436L4.81459 10.1911H2.36368V7.74143Z" fill="#222222"/>
<path d="M13.5491 13.0914H0.458182C0.203636 13.0914 0 13.2951 0 13.5423C0 13.7896 0.203636 14.0005 0.458182 14.0005H13.5491C13.7964 14.0005 14.0073 13.7969 14.0073 13.5423C14.0073 13.2878 13.7964 13.0914 13.5491 13.0914Z" fill="#222222"/>
</g>
<defs>
<clipPath id="clip0_145_1325">
<rect width="14" height="14" fill="white"/>
</clipPath>
</defs>
</svg>
